<mxfile host="app.diagrams.net" agent="Mozilla/5.0 (Windows NT 10.0; Win64; x64; rv:143.0) Gecko/20100101 Firefox/143.0" version="28.2.5">
  <diagram name="Сторінка-1" id="TQ0UG-iUp1nVyHOQF9pr">
    <mxGraphModel dx="2505" dy="893" grid="1" gridSize="10" guides="1" tooltips="1" connect="1" arrows="1" fold="1" page="1" pageScale="1" pageWidth="827" pageHeight="1169" math="0" shadow="0">
      <root>
        <mxCell id="0" />
        <mxCell id="1" parent="0" />
        <mxCell id="jYDY4iAYzL-HbKmFAZcW-9" value="EmailClientUI.class" style="shape=module;align=left;spacingLeft=20;align=center;verticalAlign=top;whiteSpace=wrap;html=1;" parent="1" vertex="1">
          <mxGeometry x="-90" y="490" width="150" height="50" as="geometry" />
        </mxCell>
        <mxCell id="jYDY4iAYzL-HbKmFAZcW-16" style="rounded=0;orthogonalLoop=1;jettySize=auto;html=1;exitX=0.5;exitY=1;exitDx=0;exitDy=0;startArrow=classic;startFill=1;endArrow=none;endFill=0;dashed=1;" parent="1" source="jYDY4iAYzL-HbKmFAZcW-10" target="jYDY4iAYzL-HbKmFAZcW-9" edge="1">
          <mxGeometry relative="1" as="geometry" />
        </mxCell>
        <mxCell id="jYDY4iAYzL-HbKmFAZcW-10" value="Message.class" style="shape=module;align=left;spacingLeft=20;align=center;verticalAlign=top;whiteSpace=wrap;html=1;" parent="1" vertex="1">
          <mxGeometry x="-30" y="380" width="150" height="50" as="geometry" />
        </mxCell>
        <mxCell id="jYDY4iAYzL-HbKmFAZcW-11" value="&lt;div&gt;UserManagment&lt;/div&gt;&lt;div&gt;Panel.class&lt;/div&gt;" style="shape=module;align=left;spacingLeft=20;align=center;verticalAlign=top;whiteSpace=wrap;html=1;shadow=0;gradientColor=none;" parent="1" vertex="1">
          <mxGeometry x="-110" y="250" width="150" height="50" as="geometry" />
        </mxCell>
        <mxCell id="jYDY4iAYzL-HbKmFAZcW-18" style="edgeStyle=orthogonalEdgeStyle;rounded=0;orthogonalLoop=1;jettySize=auto;html=1;exitX=0.5;exitY=0;exitDx=0;exitDy=0;entryX=0.5;entryY=1;entryDx=0;entryDy=0;dashed=1;" parent="1" source="jYDY4iAYzL-HbKmFAZcW-14" target="jYDY4iAYzL-HbKmFAZcW-9" edge="1">
          <mxGeometry relative="1" as="geometry" />
        </mxCell>
        <mxCell id="jYDY4iAYzL-HbKmFAZcW-14" value="&lt;span data-end=&quot;352&quot; data-start=&quot;330&quot;&gt;EmailClientGUI.exe&lt;/span&gt;" style="shape=module;align=left;spacingLeft=20;align=center;verticalAlign=top;whiteSpace=wrap;html=1;fillColor=light-dark(#c0c0c0, #ededed);" parent="1" vertex="1">
          <mxGeometry x="-90" y="585" width="150" height="50" as="geometry" />
        </mxCell>
        <mxCell id="jYDY4iAYzL-HbKmFAZcW-15" style="rounded=0;orthogonalLoop=1;jettySize=auto;html=1;exitX=0.5;exitY=0;exitDx=0;exitDy=0;entryX=0.433;entryY=1.04;entryDx=0;entryDy=0;entryPerimeter=0;dashed=1;" parent="1" source="jYDY4iAYzL-HbKmFAZcW-9" target="jYDY4iAYzL-HbKmFAZcW-11" edge="1">
          <mxGeometry relative="1" as="geometry" />
        </mxCell>
        <mxCell id="jYDY4iAYzL-HbKmFAZcW-19" value="&lt;font style=&quot;font-size: 15px;&quot;&gt;&lt;b&gt;&lt;u&gt;Клієнт&lt;/u&gt;&lt;/b&gt;&lt;/font&gt;" style="text;html=1;align=center;verticalAlign=middle;resizable=0;points=[];autosize=1;strokeColor=none;fillColor=none;" parent="1" vertex="1">
          <mxGeometry x="-70" y="155" width="70" height="30" as="geometry" />
        </mxCell>
        <mxCell id="jYDY4iAYzL-HbKmFAZcW-20" value="&lt;font style=&quot;font-size: 15px;&quot;&gt;&lt;b&gt;&lt;u&gt;Service&lt;/u&gt;&lt;/b&gt;&lt;/font&gt;" style="text;html=1;align=center;verticalAlign=middle;resizable=0;points=[];autosize=1;strokeColor=none;fillColor=none;" parent="1" vertex="1">
          <mxGeometry x="408.5" y="155" width="80" height="30" as="geometry" />
        </mxCell>
        <mxCell id="jYDY4iAYzL-HbKmFAZcW-21" value="&lt;font style=&quot;font-size: 15px;&quot;&gt;&lt;b&gt;&lt;u&gt;Repository&lt;/u&gt;&lt;/b&gt;&lt;/font&gt;" style="text;html=1;align=center;verticalAlign=middle;resizable=0;points=[];autosize=1;strokeColor=none;fillColor=none;" parent="1" vertex="1">
          <mxGeometry x="795" y="155" width="100" height="30" as="geometry" />
        </mxCell>
        <mxCell id="jYDY4iAYzL-HbKmFAZcW-37" value="&lt;div&gt;UserRepository&lt;/div&gt;&lt;div&gt;.interface&lt;/div&gt;" style="shape=module;align=left;spacingLeft=20;align=center;verticalAlign=top;whiteSpace=wrap;html=1;" parent="1" vertex="1">
          <mxGeometry x="780" y="240" width="150" height="50" as="geometry" />
        </mxCell>
        <mxCell id="mlk4HF1twsMUCGuN9J5N-1" value="" style="group" vertex="1" connectable="0" parent="1">
          <mxGeometry x="600" y="140" width="160" height="570" as="geometry" />
        </mxCell>
        <mxCell id="jYDY4iAYzL-HbKmFAZcW-3" value="" style="shape=note;size=20;whiteSpace=wrap;html=1;" parent="mlk4HF1twsMUCGuN9J5N-1" vertex="1">
          <mxGeometry width="150" height="60" as="geometry" />
        </mxCell>
        <mxCell id="jYDY4iAYzL-HbKmFAZcW-4" value="" style="shape=note;size=20;whiteSpace=wrap;html=1;" parent="mlk4HF1twsMUCGuN9J5N-1" vertex="1">
          <mxGeometry x="10" y="510" width="150" height="60" as="geometry" />
        </mxCell>
        <mxCell id="jYDY4iAYzL-HbKmFAZcW-6" style="edgeStyle=orthogonalEdgeStyle;rounded=0;orthogonalLoop=1;jettySize=auto;html=1;exitX=0.5;exitY=1;exitDx=0;exitDy=0;exitPerimeter=0;entryX=0;entryY=0;entryDx=65;entryDy=0;entryPerimeter=0;dashed=1;dashPattern=8 8;endArrow=none;endFill=0;" parent="mlk4HF1twsMUCGuN9J5N-1" source="jYDY4iAYzL-HbKmFAZcW-3" target="jYDY4iAYzL-HbKmFAZcW-4" edge="1">
          <mxGeometry relative="1" as="geometry" />
        </mxCell>
        <mxCell id="mlk4HF1twsMUCGuN9J5N-2" value="" style="group" vertex="1" connectable="0" parent="1">
          <mxGeometry x="140" y="140" width="150" height="570" as="geometry" />
        </mxCell>
        <mxCell id="jYDY4iAYzL-HbKmFAZcW-5" style="edgeStyle=orthogonalEdgeStyle;rounded=0;orthogonalLoop=1;jettySize=auto;html=1;exitX=0.5;exitY=1;exitDx=0;exitDy=0;exitPerimeter=0;dashed=1;endArrow=none;endFill=0;dashPattern=8 8;" parent="mlk4HF1twsMUCGuN9J5N-2" source="jYDY4iAYzL-HbKmFAZcW-1" target="jYDY4iAYzL-HbKmFAZcW-2" edge="1">
          <mxGeometry relative="1" as="geometry" />
        </mxCell>
        <mxCell id="jYDY4iAYzL-HbKmFAZcW-1" value="" style="shape=note;size=20;whiteSpace=wrap;html=1;" parent="mlk4HF1twsMUCGuN9J5N-2" vertex="1">
          <mxGeometry width="150" height="60" as="geometry" />
        </mxCell>
        <mxCell id="jYDY4iAYzL-HbKmFAZcW-2" value="" style="shape=note;size=20;whiteSpace=wrap;html=1;" parent="mlk4HF1twsMUCGuN9J5N-2" vertex="1">
          <mxGeometry y="510" width="150" height="60" as="geometry" />
        </mxCell>
        <mxCell id="mlk4HF1twsMUCGuN9J5N-3" value="&lt;div&gt;EmailProviderValidator&lt;/div&gt;&lt;div&gt;.interface&lt;/div&gt;" style="shape=module;align=left;spacingLeft=20;align=center;verticalAlign=top;whiteSpace=wrap;html=1;" vertex="1" parent="1">
          <mxGeometry x="373.5" y="220" width="150" height="50" as="geometry" />
        </mxCell>
        <mxCell id="mlk4HF1twsMUCGuN9J5N-7" style="rounded=0;orthogonalLoop=1;jettySize=auto;html=1;exitX=0.5;exitY=0;exitDx=0;exitDy=0;entryX=0.25;entryY=1;entryDx=0;entryDy=0;dashed=1;" edge="1" parent="1" source="mlk4HF1twsMUCGuN9J5N-4" target="mlk4HF1twsMUCGuN9J5N-3">
          <mxGeometry relative="1" as="geometry" />
        </mxCell>
        <mxCell id="mlk4HF1twsMUCGuN9J5N-4" value="&lt;div&gt;GmailValidator&lt;/div&gt;&lt;div&gt;.class&lt;/div&gt;" style="shape=module;align=left;spacingLeft=20;align=center;verticalAlign=top;whiteSpace=wrap;html=1;" vertex="1" parent="1">
          <mxGeometry x="264" y="320" width="150" height="50" as="geometry" />
        </mxCell>
        <mxCell id="mlk4HF1twsMUCGuN9J5N-9" style="rounded=0;orthogonalLoop=1;jettySize=auto;html=1;exitX=0.5;exitY=0;exitDx=0;exitDy=0;entryX=0.75;entryY=1;entryDx=0;entryDy=0;dashed=1;" edge="1" parent="1" source="mlk4HF1twsMUCGuN9J5N-5" target="mlk4HF1twsMUCGuN9J5N-3">
          <mxGeometry relative="1" as="geometry" />
        </mxCell>
        <mxCell id="mlk4HF1twsMUCGuN9J5N-5" value="&lt;div&gt;UkrNetValidator&lt;/div&gt;&lt;div&gt;.class&lt;/div&gt;" style="shape=module;align=left;spacingLeft=20;align=center;verticalAlign=top;whiteSpace=wrap;html=1;" vertex="1" parent="1">
          <mxGeometry x="460" y="290" width="150" height="50" as="geometry" />
        </mxCell>
        <mxCell id="mlk4HF1twsMUCGuN9J5N-10" style="rounded=0;orthogonalLoop=1;jettySize=auto;html=1;exitX=0.5;exitY=0;exitDx=0;exitDy=0;entryX=0.5;entryY=1;entryDx=0;entryDy=0;dashed=1;" edge="1" parent="1" source="mlk4HF1twsMUCGuN9J5N-6" target="mlk4HF1twsMUCGuN9J5N-3">
          <mxGeometry relative="1" as="geometry" />
        </mxCell>
        <mxCell id="mlk4HF1twsMUCGuN9J5N-6" value="&lt;div&gt;IUAValidator&lt;/div&gt;&lt;div&gt;.class&lt;/div&gt;" style="shape=module;align=left;spacingLeft=20;align=center;verticalAlign=top;whiteSpace=wrap;html=1;" vertex="1" parent="1">
          <mxGeometry x="390" y="380" width="150" height="50" as="geometry" />
        </mxCell>
        <mxCell id="mlk4HF1twsMUCGuN9J5N-11" style="rounded=0;orthogonalLoop=1;jettySize=auto;html=1;exitX=1;exitY=0.5;exitDx=0;exitDy=0;entryX=0.037;entryY=0.46;entryDx=0;entryDy=0;entryPerimeter=0;dashed=1;" edge="1" parent="1" source="jYDY4iAYzL-HbKmFAZcW-11" target="mlk4HF1twsMUCGuN9J5N-3">
          <mxGeometry relative="1" as="geometry" />
        </mxCell>
        <mxCell id="mlk4HF1twsMUCGuN9J5N-12" style="rounded=0;orthogonalLoop=1;jettySize=auto;html=1;exitX=1;exitY=0.5;exitDx=0;exitDy=0;entryX=0;entryY=0;entryDx=0;entryDy=35;entryPerimeter=0;dashed=1;" edge="1" parent="1" source="jYDY4iAYzL-HbKmFAZcW-10" target="mlk4HF1twsMUCGuN9J5N-3">
          <mxGeometry relative="1" as="geometry" />
        </mxCell>
        <mxCell id="mlk4HF1twsMUCGuN9J5N-13" value="&lt;div&gt;UserService&lt;/div&gt;&lt;div&gt;.class&lt;/div&gt;" style="shape=module;align=left;spacingLeft=20;align=center;verticalAlign=top;whiteSpace=wrap;html=1;" vertex="1" parent="1">
          <mxGeometry x="280" y="480" width="150" height="50" as="geometry" />
        </mxCell>
        <mxCell id="mlk4HF1twsMUCGuN9J5N-14" value="&lt;div&gt;AccountService&lt;/div&gt;&lt;div&gt;.class&lt;/div&gt;" style="shape=module;align=left;spacingLeft=20;align=center;verticalAlign=top;whiteSpace=wrap;html=1;" vertex="1" parent="1">
          <mxGeometry x="440" y="450" width="150" height="50" as="geometry" />
        </mxCell>
        <mxCell id="mlk4HF1twsMUCGuN9J5N-15" value="&lt;div&gt;MessageService&lt;/div&gt;&lt;div&gt;.class&lt;/div&gt;" style="shape=module;align=left;spacingLeft=20;align=center;verticalAlign=top;whiteSpace=wrap;html=1;" vertex="1" parent="1">
          <mxGeometry x="290" y="610" width="150" height="50" as="geometry" />
        </mxCell>
        <mxCell id="mlk4HF1twsMUCGuN9J5N-16" value="&lt;div&gt;FolderService&lt;/div&gt;&lt;div&gt;.class&lt;/div&gt;" style="shape=module;align=left;spacingLeft=20;align=center;verticalAlign=top;whiteSpace=wrap;html=1;" vertex="1" parent="1">
          <mxGeometry x="500" y="585" width="150" height="50" as="geometry" />
        </mxCell>
        <mxCell id="mlk4HF1twsMUCGuN9J5N-18" value="&lt;div&gt;AttachmentService&lt;/div&gt;&lt;div&gt;.class&lt;/div&gt;" style="shape=module;align=left;spacingLeft=20;align=center;verticalAlign=top;whiteSpace=wrap;html=1;" vertex="1" parent="1">
          <mxGeometry x="280" y="540" width="150" height="50" as="geometry" />
        </mxCell>
        <mxCell id="mlk4HF1twsMUCGuN9J5N-19" style="rounded=0;orthogonalLoop=1;jettySize=auto;html=1;exitX=1;exitY=0.5;exitDx=0;exitDy=0;entryX=0;entryY=0;entryDx=0;entryDy=35;entryPerimeter=0;dashed=1;" edge="1" parent="1" source="jYDY4iAYzL-HbKmFAZcW-10" target="mlk4HF1twsMUCGuN9J5N-15">
          <mxGeometry relative="1" as="geometry" />
        </mxCell>
        <mxCell id="mlk4HF1twsMUCGuN9J5N-20" style="rounded=0;orthogonalLoop=1;jettySize=auto;html=1;exitX=1;exitY=0.5;exitDx=0;exitDy=0;entryX=0.173;entryY=-0.06;entryDx=0;entryDy=0;entryPerimeter=0;dashed=1;" edge="1" parent="1" source="jYDY4iAYzL-HbKmFAZcW-11" target="mlk4HF1twsMUCGuN9J5N-13">
          <mxGeometry relative="1" as="geometry" />
        </mxCell>
        <mxCell id="mlk4HF1twsMUCGuN9J5N-21" style="rounded=0;orthogonalLoop=1;jettySize=auto;html=1;exitX=1;exitY=0.5;exitDx=0;exitDy=0;entryX=0.073;entryY=0.2;entryDx=0;entryDy=0;entryPerimeter=0;dashed=1;" edge="1" parent="1" source="jYDY4iAYzL-HbKmFAZcW-11" target="mlk4HF1twsMUCGuN9J5N-14">
          <mxGeometry relative="1" as="geometry" />
        </mxCell>
        <mxCell id="mlk4HF1twsMUCGuN9J5N-22" style="rounded=0;orthogonalLoop=1;jettySize=auto;html=1;exitX=1;exitY=0.5;exitDx=0;exitDy=0;entryX=0;entryY=0;entryDx=0;entryDy=15;entryPerimeter=0;dashed=1;" edge="1" parent="1" source="jYDY4iAYzL-HbKmFAZcW-10" target="mlk4HF1twsMUCGuN9J5N-18">
          <mxGeometry relative="1" as="geometry" />
        </mxCell>
        <mxCell id="mlk4HF1twsMUCGuN9J5N-23" style="rounded=0;orthogonalLoop=1;jettySize=auto;html=1;exitX=1;exitY=0.5;exitDx=0;exitDy=0;entryX=0.02;entryY=0.5;entryDx=0;entryDy=0;entryPerimeter=0;dashed=1;" edge="1" parent="1" source="jYDY4iAYzL-HbKmFAZcW-10" target="mlk4HF1twsMUCGuN9J5N-16">
          <mxGeometry relative="1" as="geometry" />
        </mxCell>
        <mxCell id="mlk4HF1twsMUCGuN9J5N-24" value="&lt;div&gt;AccountRepository&lt;/div&gt;&lt;div&gt;.interface&lt;/div&gt;" style="shape=module;align=left;spacingLeft=20;align=center;verticalAlign=top;whiteSpace=wrap;html=1;" vertex="1" parent="1">
          <mxGeometry x="780" y="310" width="150" height="50" as="geometry" />
        </mxCell>
        <mxCell id="mlk4HF1twsMUCGuN9J5N-25" value="&lt;div&gt;MessageRepository&lt;/div&gt;&lt;div&gt;.interface&lt;/div&gt;" style="shape=module;align=left;spacingLeft=20;align=center;verticalAlign=top;whiteSpace=wrap;html=1;" vertex="1" parent="1">
          <mxGeometry x="780" y="380" width="150" height="50" as="geometry" />
        </mxCell>
        <mxCell id="mlk4HF1twsMUCGuN9J5N-26" value="&lt;div&gt;FolderRepository&lt;/div&gt;&lt;div&gt;.interface&lt;/div&gt;" style="shape=module;align=left;spacingLeft=20;align=center;verticalAlign=top;whiteSpace=wrap;html=1;" vertex="1" parent="1">
          <mxGeometry x="780" y="450" width="150" height="50" as="geometry" />
        </mxCell>
        <mxCell id="mlk4HF1twsMUCGuN9J5N-27" value="&lt;div&gt;AttachmentRepository&lt;/div&gt;&lt;div&gt;.interface&lt;/div&gt;" style="shape=module;align=left;spacingLeft=20;align=center;verticalAlign=top;whiteSpace=wrap;html=1;" vertex="1" parent="1">
          <mxGeometry x="780" y="535" width="150" height="50" as="geometry" />
        </mxCell>
        <mxCell id="mlk4HF1twsMUCGuN9J5N-28" style="rounded=0;orthogonalLoop=1;jettySize=auto;html=1;exitX=1;exitY=0.5;exitDx=0;exitDy=0;entryX=0;entryY=0;entryDx=0;entryDy=15;entryPerimeter=0;dashed=1;" edge="1" parent="1" source="mlk4HF1twsMUCGuN9J5N-16" target="mlk4HF1twsMUCGuN9J5N-26">
          <mxGeometry relative="1" as="geometry" />
        </mxCell>
        <mxCell id="mlk4HF1twsMUCGuN9J5N-29" style="rounded=0;orthogonalLoop=1;jettySize=auto;html=1;exitX=1;exitY=0.5;exitDx=0;exitDy=0;entryX=0;entryY=0.44;entryDx=0;entryDy=0;entryPerimeter=0;dashed=1;" edge="1" parent="1" source="mlk4HF1twsMUCGuN9J5N-14" target="mlk4HF1twsMUCGuN9J5N-24">
          <mxGeometry relative="1" as="geometry" />
        </mxCell>
        <mxCell id="mlk4HF1twsMUCGuN9J5N-30" style="rounded=0;orthogonalLoop=1;jettySize=auto;html=1;exitX=1;exitY=0.5;exitDx=0;exitDy=0;entryX=0.04;entryY=0.48;entryDx=0;entryDy=0;entryPerimeter=0;dashed=1;" edge="1" parent="1" source="mlk4HF1twsMUCGuN9J5N-13" target="jYDY4iAYzL-HbKmFAZcW-37">
          <mxGeometry relative="1" as="geometry" />
        </mxCell>
        <mxCell id="mlk4HF1twsMUCGuN9J5N-31" style="rounded=0;orthogonalLoop=1;jettySize=auto;html=1;exitX=1;exitY=0.5;exitDx=0;exitDy=0;entryX=0;entryY=0.52;entryDx=0;entryDy=0;entryPerimeter=0;dashed=1;" edge="1" parent="1" source="mlk4HF1twsMUCGuN9J5N-15" target="mlk4HF1twsMUCGuN9J5N-25">
          <mxGeometry relative="1" as="geometry" />
        </mxCell>
        <mxCell id="mlk4HF1twsMUCGuN9J5N-32" style="rounded=0;orthogonalLoop=1;jettySize=auto;html=1;exitX=1;exitY=0.5;exitDx=0;exitDy=0;entryX=0.02;entryY=0.44;entryDx=0;entryDy=0;entryPerimeter=0;dashed=1;" edge="1" parent="1" source="mlk4HF1twsMUCGuN9J5N-18" target="mlk4HF1twsMUCGuN9J5N-27">
          <mxGeometry relative="1" as="geometry" />
        </mxCell>
        <mxCell id="mlk4HF1twsMUCGuN9J5N-33" value="" style="group" vertex="1" connectable="0" parent="1">
          <mxGeometry x="970" y="140" width="160" height="570" as="geometry" />
        </mxCell>
        <mxCell id="mlk4HF1twsMUCGuN9J5N-34" value="" style="shape=note;size=20;whiteSpace=wrap;html=1;" vertex="1" parent="mlk4HF1twsMUCGuN9J5N-33">
          <mxGeometry width="150" height="60" as="geometry" />
        </mxCell>
        <mxCell id="mlk4HF1twsMUCGuN9J5N-35" value="" style="shape=note;size=20;whiteSpace=wrap;html=1;" vertex="1" parent="mlk4HF1twsMUCGuN9J5N-33">
          <mxGeometry x="10" y="510" width="150" height="60" as="geometry" />
        </mxCell>
        <mxCell id="mlk4HF1twsMUCGuN9J5N-36" style="edgeStyle=orthogonalEdgeStyle;rounded=0;orthogonalLoop=1;jettySize=auto;html=1;exitX=0.5;exitY=1;exitDx=0;exitDy=0;exitPerimeter=0;entryX=0;entryY=0;entryDx=65;entryDy=0;entryPerimeter=0;dashed=1;dashPattern=8 8;endArrow=none;endFill=0;" edge="1" parent="mlk4HF1twsMUCGuN9J5N-33" source="mlk4HF1twsMUCGuN9J5N-34" target="mlk4HF1twsMUCGuN9J5N-35">
          <mxGeometry relative="1" as="geometry" />
        </mxCell>
        <mxCell id="mlk4HF1twsMUCGuN9J5N-38" value="&lt;font style=&quot;font-size: 15px;&quot;&gt;&lt;u&gt;&lt;b&gt;Model&lt;/b&gt;&lt;/u&gt;&lt;/font&gt;" style="text;html=1;align=center;verticalAlign=middle;resizable=0;points=[];autosize=1;strokeColor=none;fillColor=none;" vertex="1" parent="1">
          <mxGeometry x="1175" y="148" width="70" height="30" as="geometry" />
        </mxCell>
        <mxCell id="mlk4HF1twsMUCGuN9J5N-39" value="&lt;div&gt;User&lt;/div&gt;&lt;div&gt;.class&lt;/div&gt;" style="shape=module;align=left;spacingLeft=20;align=center;verticalAlign=top;whiteSpace=wrap;html=1;" vertex="1" parent="1">
          <mxGeometry x="1166" y="220" width="150" height="50" as="geometry" />
        </mxCell>
        <mxCell id="mlk4HF1twsMUCGuN9J5N-40" value="&lt;div&gt;Account&lt;/div&gt;&lt;div&gt;.class&lt;/div&gt;" style="shape=module;align=left;spacingLeft=20;align=center;verticalAlign=top;whiteSpace=wrap;html=1;" vertex="1" parent="1">
          <mxGeometry x="1166" y="290" width="150" height="50" as="geometry" />
        </mxCell>
        <mxCell id="mlk4HF1twsMUCGuN9J5N-41" value="&lt;div&gt;Message&lt;/div&gt;&lt;div&gt;.class&lt;/div&gt;" style="shape=module;align=left;spacingLeft=20;align=center;verticalAlign=top;whiteSpace=wrap;html=1;" vertex="1" parent="1">
          <mxGeometry x="1166" y="370" width="150" height="50" as="geometry" />
        </mxCell>
        <mxCell id="mlk4HF1twsMUCGuN9J5N-42" value="&lt;div&gt;Draft&lt;/div&gt;&lt;div&gt;.class&lt;/div&gt;" style="shape=module;align=left;spacingLeft=20;align=center;verticalAlign=top;whiteSpace=wrap;html=1;" vertex="1" parent="1">
          <mxGeometry x="1166" y="450" width="150" height="50" as="geometry" />
        </mxCell>
        <mxCell id="mlk4HF1twsMUCGuN9J5N-43" value="&lt;div&gt;Folder&lt;/div&gt;&lt;div&gt;.class&lt;/div&gt;" style="shape=module;align=left;spacingLeft=20;align=center;verticalAlign=top;whiteSpace=wrap;html=1;" vertex="1" parent="1">
          <mxGeometry x="1166" y="520" width="150" height="50" as="geometry" />
        </mxCell>
        <mxCell id="mlk4HF1twsMUCGuN9J5N-44" value="&lt;div&gt;Attachment&lt;/div&gt;&lt;div&gt;.class&lt;/div&gt;" style="shape=module;align=left;spacingLeft=20;align=center;verticalAlign=top;whiteSpace=wrap;html=1;" vertex="1" parent="1">
          <mxGeometry x="1166" y="585" width="150" height="50" as="geometry" />
        </mxCell>
        <mxCell id="mlk4HF1twsMUCGuN9J5N-45" value="&lt;div&gt;DraftRepository&lt;/div&gt;&lt;div&gt;.interface&lt;/div&gt;" style="shape=module;align=left;spacingLeft=20;align=center;verticalAlign=top;whiteSpace=wrap;html=1;" vertex="1" parent="1">
          <mxGeometry x="780" y="600" width="150" height="50" as="geometry" />
        </mxCell>
        <mxCell id="mlk4HF1twsMUCGuN9J5N-46" style="rounded=0;orthogonalLoop=1;jettySize=auto;html=1;exitX=1;exitY=0.5;exitDx=0;exitDy=0;entryX=0;entryY=0;entryDx=0;entryDy=15;entryPerimeter=0;dashed=1;" edge="1" parent="1" source="mlk4HF1twsMUCGuN9J5N-45" target="mlk4HF1twsMUCGuN9J5N-42">
          <mxGeometry relative="1" as="geometry" />
        </mxCell>
        <mxCell id="mlk4HF1twsMUCGuN9J5N-47" style="rounded=0;orthogonalLoop=1;jettySize=auto;html=1;exitX=1;exitY=0.5;exitDx=0;exitDy=0;entryX=0;entryY=0;entryDx=0;entryDy=15;entryPerimeter=0;dashed=1;" edge="1" parent="1" source="mlk4HF1twsMUCGuN9J5N-27" target="mlk4HF1twsMUCGuN9J5N-44">
          <mxGeometry relative="1" as="geometry" />
        </mxCell>
        <mxCell id="mlk4HF1twsMUCGuN9J5N-48" style="rounded=0;orthogonalLoop=1;jettySize=auto;html=1;exitX=1;exitY=0.5;exitDx=0;exitDy=0;entryX=0;entryY=0;entryDx=0;entryDy=15;entryPerimeter=0;dashed=1;" edge="1" parent="1" source="mlk4HF1twsMUCGuN9J5N-26" target="mlk4HF1twsMUCGuN9J5N-43">
          <mxGeometry relative="1" as="geometry" />
        </mxCell>
        <mxCell id="mlk4HF1twsMUCGuN9J5N-49" style="rounded=0;orthogonalLoop=1;jettySize=auto;html=1;exitX=1;exitY=0.5;exitDx=0;exitDy=0;entryX=0;entryY=0;entryDx=0;entryDy=15;entryPerimeter=0;dashed=1;" edge="1" parent="1" source="mlk4HF1twsMUCGuN9J5N-25" target="mlk4HF1twsMUCGuN9J5N-41">
          <mxGeometry relative="1" as="geometry" />
        </mxCell>
        <mxCell id="mlk4HF1twsMUCGuN9J5N-50" style="rounded=0;orthogonalLoop=1;jettySize=auto;html=1;exitX=1;exitY=0.5;exitDx=0;exitDy=0;entryX=0;entryY=0;entryDx=0;entryDy=15;entryPerimeter=0;dashed=1;" edge="1" parent="1" source="mlk4HF1twsMUCGuN9J5N-24" target="mlk4HF1twsMUCGuN9J5N-40">
          <mxGeometry relative="1" as="geometry" />
        </mxCell>
        <mxCell id="mlk4HF1twsMUCGuN9J5N-51" style="rounded=0;orthogonalLoop=1;jettySize=auto;html=1;exitX=1;exitY=0.5;exitDx=0;exitDy=0;entryX=0.013;entryY=0.44;entryDx=0;entryDy=0;entryPerimeter=0;dashed=1;" edge="1" parent="1" source="jYDY4iAYzL-HbKmFAZcW-37" target="mlk4HF1twsMUCGuN9J5N-39">
          <mxGeometry relative="1" as="geometry" />
        </mxCell>
      </root>
    </mxGraphModel>
  </diagram>
</mxfile>
